<mxfile host="app.diagrams.net" modified="2023-10-24T09:14:31.195Z" agent="Mozilla/5.0 (Windows NT 10.0; Win64; x64) AppleWebKit/537.36 (KHTML, like Gecko) Chrome/118.0.0.0 Safari/537.36 Edg/118.0.2088.61" etag="xeHWOS6k6t_NQmMHzG5c" version="22.0.6" type="device">
  <diagram id="6a731a19-8d31-9384-78a2-239565b7b9f0" name="Page-1">
    <mxGraphModel dx="1232" dy="788" grid="1" gridSize="10" guides="1" tooltips="1" connect="1" arrows="1" fold="1" page="1" pageScale="1" pageWidth="1169" pageHeight="827" background="none" math="0" shadow="0">
      <root>
        <mxCell id="0" />
        <mxCell id="1" parent="0" />
        <mxCell id="1350" value="setAddStripeMode" style="ellipse;whiteSpace=wrap;html=1;shadow=0;fontFamily=Helvetica;fontSize=20;fontColor=#FFFFFF;align=center;strokeWidth=3;fillColor=#1699D3;strokeColor=none;" parent="1" vertex="1">
          <mxGeometry x="523.5" y="271.5" width="176.5" height="120" as="geometry" />
        </mxCell>
        <mxCell id="1351" value="setViaGenMode" style="ellipse;whiteSpace=wrap;html=1;shadow=0;fontFamily=Helvetica;fontSize=20;fontColor=#FFFFFF;align=center;strokeWidth=3;fillColor=#F08705;strokeColor=none;gradientColor=none;" parent="1" vertex="1">
          <mxGeometry x="1050" y="420" width="180" height="120" as="geometry" />
        </mxCell>
        <mxCell id="1352" value="createRouteBlk" style="ellipse;whiteSpace=wrap;html=1;shadow=0;fontFamily=Helvetica;fontSize=20;fontColor=#FFFFFF;align=center;strokeWidth=3;fillColor=#E85642;strokeColor=none;" parent="1" vertex="1">
          <mxGeometry x="1373.5" y="490" width="150" height="120" as="geometry" />
        </mxCell>
        <mxCell id="1353" value="editSelect" style="ellipse;whiteSpace=wrap;html=1;shadow=0;fontFamily=Helvetica;fontSize=20;fontColor=#FFFFFF;align=center;strokeWidth=3;fillColor=#1699D3;strokeColor=none;" parent="1" vertex="1">
          <mxGeometry x="1656" y="783" width="120" height="120" as="geometry" />
        </mxCell>
        <mxCell id="1354" value="setSrouteMode" style="ellipse;whiteSpace=wrap;html=1;shadow=0;fontFamily=Helvetica;fontSize=20;fontColor=#FFFFFF;align=center;strokeWidth=3;fillColor=#736ca8;strokeColor=none;" parent="1" vertex="1">
          <mxGeometry x="1380" y="961.5" width="159" height="120" as="geometry" />
        </mxCell>
        <mxCell id="1355" value="sroute" style="ellipse;whiteSpace=wrap;html=1;shadow=0;fontFamily=Helvetica;fontSize=20;fontColor=#FFFFFF;align=center;strokeWidth=3;fillColor=#F08705;strokeColor=none;" parent="1" vertex="1">
          <mxGeometry x="1169.5" y="1151.5" width="120" height="120" as="geometry" />
        </mxCell>
        <mxCell id="1356" value="addNet" style="ellipse;whiteSpace=wrap;html=1;shadow=0;fontFamily=Helvetica;fontSize=20;fontColor=#FFFFFF;align=center;strokeWidth=3;fillColor=#E85642;strokeColor=none;" parent="1" vertex="1">
          <mxGeometry x="376.5" y="881.5" width="120" height="120" as="geometry" />
        </mxCell>
        <mxCell id="1357" value="&lt;font style=&quot;font-size: 16px;&quot;&gt;use_cce&amp;nbsp; &amp;nbsp;1&lt;/font&gt;" style="rounded=1;fillColor=#f5af58;strokeColor=none;strokeWidth=3;shadow=0;html=1;fontColor=#FFFFFF;" parent="1" vertex="1">
          <mxGeometry x="990" y="325" width="120" height="40" as="geometry" />
        </mxCell>
        <mxCell id="1358" value="stacked_via_top_layer&amp;nbsp; M5" style="rounded=1;fillColor=#64BBE2;strokeColor=none;strokeWidth=3;shadow=0;html=1;fontColor=#FFFFFF;" parent="1" vertex="1">
          <mxGeometry x="310" y="200" width="180" height="40" as="geometry" />
        </mxCell>
        <mxCell id="1359" style="endArrow=none;strokeWidth=6;strokeColor=#1699D3;html=1;" parent="1" source="1515" target="1350" edge="1">
          <mxGeometry relative="1" as="geometry" />
        </mxCell>
        <mxCell id="1360" style="endArrow=none;strokeWidth=6;strokeColor=#f08705;html=1;" parent="1" source="1515" target="1351" edge="1">
          <mxGeometry relative="1" as="geometry" />
        </mxCell>
        <mxCell id="1361" style="endArrow=none;strokeWidth=6;strokeColor=#E85642;html=1;" parent="1" source="1515" target="1352" edge="1">
          <mxGeometry relative="1" as="geometry" />
        </mxCell>
        <mxCell id="1362" style="endArrow=none;strokeWidth=6;strokeColor=#1699D3;html=1;" parent="1" source="1515" target="1353" edge="1">
          <mxGeometry relative="1" as="geometry" />
        </mxCell>
        <mxCell id="1363" style="endArrow=none;strokeWidth=6;strokeColor=#736CA8;html=1;" parent="1" source="1515" target="1516" edge="1">
          <mxGeometry relative="1" as="geometry" />
        </mxCell>
        <mxCell id="1364" style="endArrow=none;strokeWidth=6;strokeColor=#736ca8;html=1;" parent="1" source="1515" target="1354" edge="1">
          <mxGeometry relative="1" as="geometry" />
        </mxCell>
        <mxCell id="1365" value="" style="edgeStyle=none;endArrow=none;strokeWidth=6;strokeColor=#F08705;html=1;" parent="1" source="1515" target="1355" edge="1">
          <mxGeometry x="181" y="226.5" width="100" height="100" as="geometry">
            <mxPoint x="181" y="326.5" as="sourcePoint" />
            <mxPoint x="281" y="226.5" as="targetPoint" />
          </mxGeometry>
        </mxCell>
        <mxCell id="1366" value="" style="edgeStyle=none;endArrow=none;strokeWidth=6;strokeColor=#E85642;html=1;" parent="1" source="1515" target="1356" edge="1">
          <mxGeometry x="181" y="226.5" width="100" height="100" as="geometry">
            <mxPoint x="181" y="326.5" as="sourcePoint" />
            <mxPoint x="281" y="226.5" as="targetPoint" />
          </mxGeometry>
        </mxCell>
        <mxCell id="1368" value="reset（重置）" style="rounded=1;fillColor=#64BBE2;strokeColor=none;strokeWidth=3;shadow=0;html=1;fontColor=#FFFFFF;fontSize=20;" parent="1" vertex="1">
          <mxGeometry x="600" y="140" width="130" height="40" as="geometry" />
        </mxCell>
        <mxCell id="1379" value="" style="edgeStyle=none;endArrow=none;strokeWidth=3;strokeColor=#64BBE2;html=1;" parent="1" source="1350" target="1358" edge="1">
          <mxGeometry x="-221.5" y="56.5" width="100" height="100" as="geometry">
            <mxPoint x="539.4998560703912" y="300.59335707908394" as="sourcePoint" />
            <mxPoint x="-129.19" y="66.5" as="targetPoint" />
          </mxGeometry>
        </mxCell>
        <mxCell id="1380" value="" style="edgeStyle=none;endArrow=none;strokeWidth=3;strokeColor=#64BBE2;html=1;" parent="1" source="1350" target="1368" edge="1">
          <mxGeometry x="-221.5" y="56.5" width="100" height="100" as="geometry">
            <mxPoint x="-221.5" y="156.5" as="sourcePoint" />
            <mxPoint x="-121.5" y="56.5" as="targetPoint" />
          </mxGeometry>
        </mxCell>
        <mxCell id="1389" value="-reset" style="rounded=1;fillColor=#f5af58;strokeColor=none;strokeWidth=3;shadow=0;html=1;fontColor=#FFFFFF;fontSize=22;" parent="1" vertex="1">
          <mxGeometry x="1200" y="348.5" width="120" height="40" as="geometry" />
        </mxCell>
        <mxCell id="1399" value="" style="edgeStyle=none;endArrow=none;strokeWidth=3;strokeColor=#F5AF58;html=1;" parent="1" source="1351" target="1357" edge="1">
          <mxGeometry x="3.5" y="21.5" width="100" height="100" as="geometry">
            <mxPoint x="-16.5" y="300" as="sourcePoint" />
            <mxPoint x="83.5" y="200" as="targetPoint" />
          </mxGeometry>
        </mxCell>
        <mxCell id="1401" value="" style="edgeStyle=none;endArrow=none;strokeWidth=3;strokeColor=#F5AF58;html=1;" parent="1" source="1351" target="1389" edge="1">
          <mxGeometry x="3.5" y="21.5" width="100" height="100" as="geometry">
            <mxPoint x="-16.5" y="300" as="sourcePoint" />
            <mxPoint x="83.5" y="200" as="targetPoint" />
          </mxGeometry>
        </mxCell>
        <mxCell id="1412" value="name" style="rounded=1;fillColor=#f08e81;strokeColor=none;strokeWidth=3;shadow=0;html=1;fontColor=#FFFFFF;" parent="1" vertex="1">
          <mxGeometry x="1614.5" y="590" width="120" height="40" as="geometry" />
        </mxCell>
        <mxCell id="1418" value="box&lt;br&gt;指定添加blk的区域" style="rounded=1;fillColor=#f08e81;strokeColor=none;strokeWidth=3;shadow=0;html=1;fontColor=#FFFFFF;" parent="1" vertex="1">
          <mxGeometry x="1427.5" y="380" width="120" height="40" as="geometry" />
        </mxCell>
        <mxCell id="1419" value="layer" style="rounded=1;fillColor=#f08e81;strokeColor=none;strokeWidth=3;shadow=0;html=1;fontColor=#FFFFFF;" parent="1" vertex="1">
          <mxGeometry x="1624" y="451.5" width="120" height="40" as="geometry" />
        </mxCell>
        <mxCell id="1429" value="" style="edgeStyle=none;endArrow=none;strokeWidth=3;strokeColor=#F08E81;html=1;" parent="1" source="1352" target="1418" edge="1">
          <mxGeometry x="31" y="106.5" width="100" height="100" as="geometry">
            <mxPoint x="-175.5" y="346.5" as="sourcePoint" />
            <mxPoint x="-75.5" y="246.5" as="targetPoint" />
          </mxGeometry>
        </mxCell>
        <mxCell id="1430" value="" style="edgeStyle=none;endArrow=none;strokeWidth=3;strokeColor=#F08E81;html=1;" parent="1" source="1352" target="1419" edge="1">
          <mxGeometry x="31" y="106.5" width="100" height="100" as="geometry">
            <mxPoint x="-175.5" y="346.5" as="sourcePoint" />
            <mxPoint x="-75.5" y="246.5" as="targetPoint" />
          </mxGeometry>
        </mxCell>
        <mxCell id="1431" value="" style="edgeStyle=none;endArrow=none;strokeWidth=3;strokeColor=#F08E81;html=1;" parent="1" source="1352" target="1412" edge="1">
          <mxGeometry x="31" y="106.5" width="100" height="100" as="geometry">
            <mxPoint x="-175.5" y="346.5" as="sourcePoint" />
            <mxPoint x="-75.5" y="246.5" as="targetPoint" />
          </mxGeometry>
        </mxCell>
        <mxCell id="1437" value="wires_only 0&lt;br&gt;是否选中所有的wire不包括viq" style="rounded=1;fillColor=#64BBE2;strokeColor=none;strokeWidth=3;shadow=0;html=1;fontColor=#FFFFFF;" parent="1" vertex="1">
          <mxGeometry x="1590" y="676.5" width="171" height="40" as="geometry" />
        </mxCell>
        <mxCell id="1438" value="type_Special&lt;br&gt;指定线的类型，常规类型或者非常规类型" style="rounded=1;fillColor=#64BBE2;strokeColor=none;strokeWidth=3;shadow=0;html=1;fontColor=#FFFFFF;" parent="1" vertex="1">
          <mxGeometry x="1840" y="730" width="240" height="40" as="geometry" />
        </mxCell>
        <mxCell id="1439" value="stacked_via_bottom_layer&amp;nbsp; &amp;nbsp;M4&lt;br&gt;指定通孔可以打的最底层" style="rounded=1;fillColor=#64BBE2;strokeColor=none;strokeWidth=3;shadow=0;html=1;fontColor=#FFFFFF;" parent="1" vertex="1">
          <mxGeometry x="310" y="340" width="173.5" height="40" as="geometry" />
        </mxCell>
        <mxCell id="1440" value="-layer M1" style="rounded=1;fillColor=#64BBE2;strokeColor=none;strokeWidth=3;shadow=0;html=1;fontColor=#FFFFFF;" parent="1" vertex="1">
          <mxGeometry x="1880" y="818" width="120" height="40" as="geometry" />
        </mxCell>
        <mxCell id="1441" value="shapes&lt;br&gt;指定要选择线的形状" style="rounded=1;fillColor=#64BBE2;strokeColor=none;strokeWidth=3;shadow=0;html=1;fontColor=#FFFFFF;" parent="1" vertex="1">
          <mxGeometry x="1860" y="923" width="120" height="40" as="geometry" />
        </mxCell>
        <mxCell id="1443" value="net&lt;br&gt;指定要选择的线的名称" style="rounded=1;fillColor=#64BBE2;strokeColor=none;strokeWidth=3;shadow=0;html=1;fontColor=#FFFFFF;" parent="1" vertex="1">
          <mxGeometry x="1680" y="976.5" width="130" height="40" as="geometry" />
        </mxCell>
        <mxCell id="1448" value="" style="edgeStyle=none;endArrow=none;strokeWidth=3;strokeColor=#64BBE2;html=1;" parent="1" source="1353" target="1437" edge="1">
          <mxGeometry x="-24" y="196.5" width="100" height="100" as="geometry">
            <mxPoint x="-304" y="273" as="sourcePoint" />
            <mxPoint x="-204" y="173" as="targetPoint" />
          </mxGeometry>
        </mxCell>
        <mxCell id="1449" value="" style="edgeStyle=none;endArrow=none;strokeWidth=3;strokeColor=#64BBE2;html=1;entryX=0;entryY=0.5;entryDx=0;entryDy=0;" parent="1" source="1353" target="1438" edge="1">
          <mxGeometry x="-24" y="196.5" width="100" height="100" as="geometry">
            <mxPoint x="-304" y="273" as="sourcePoint" />
            <mxPoint x="1907" y="753" as="targetPoint" />
          </mxGeometry>
        </mxCell>
        <mxCell id="1451" value="" style="edgeStyle=none;endArrow=none;strokeWidth=3;strokeColor=#64BBE2;html=1;" parent="1" source="1353" target="1440" edge="1">
          <mxGeometry x="-24" y="196.5" width="100" height="100" as="geometry">
            <mxPoint x="-304" y="273" as="sourcePoint" />
            <mxPoint x="-204" y="173" as="targetPoint" />
          </mxGeometry>
        </mxCell>
        <mxCell id="1453" value="" style="edgeStyle=none;endArrow=none;strokeWidth=3;strokeColor=#64BBE2;html=1;" parent="1" source="1353" target="1441" edge="1">
          <mxGeometry x="-24" y="196.5" width="100" height="100" as="geometry">
            <mxPoint x="-304" y="273" as="sourcePoint" />
            <mxPoint x="-204" y="173" as="targetPoint" />
          </mxGeometry>
        </mxCell>
        <mxCell id="1454" value="" style="edgeStyle=none;endArrow=none;strokeWidth=3;strokeColor=#64BBE2;html=1;" parent="1" source="1353" target="1443" edge="1">
          <mxGeometry x="-24" y="196.5" width="100" height="100" as="geometry">
            <mxPoint x="-304" y="273" as="sourcePoint" />
            <mxPoint x="-204" y="173" as="targetPoint" />
          </mxGeometry>
        </mxCell>
        <mxCell id="GzHQdZUdkTZhzvXeLM4d-1540" style="edgeStyle=orthogonalEdgeStyle;rounded=0;orthogonalLoop=1;jettySize=auto;html=1;exitX=0.5;exitY=1;exitDx=0;exitDy=0;" parent="1" source="1461" edge="1">
          <mxGeometry relative="1" as="geometry">
            <mxPoint x="1700" y="1130" as="targetPoint" />
          </mxGeometry>
        </mxCell>
        <mxCell id="1461" value="connectBrokenCorePin&lt;br&gt;true:检查pin,会broken followpin 做到drc clean&lt;br&gt;flase：不会做任何检查" style="rounded=1;fillColor=#a29dc5;strokeColor=none;strokeWidth=3;shadow=0;html=1;fontColor=#FFFFFF;" parent="1" vertex="1">
          <mxGeometry x="1580" y="1066.5" width="270" height="40" as="geometry" />
        </mxCell>
        <mxCell id="1464" value="" style="edgeStyle=none;endArrow=none;strokeWidth=3;strokeColor=#A29DC5;html=1;" parent="1" source="1354" target="1461" edge="1">
          <mxGeometry x="251" y="-103.5" width="100" height="100" as="geometry">
            <mxPoint x="251" y="-3.5" as="sourcePoint" />
            <mxPoint x="351" y="-103.5" as="targetPoint" />
          </mxGeometry>
        </mxCell>
        <mxCell id="1468" value="allowLayerChange 0&lt;br&gt;允许跨层长pin" style="rounded=1;fillColor=#f5af58;strokeColor=none;strokeWidth=3;shadow=0;html=1;fontColor=#FFFFFF;" parent="1" vertex="1">
          <mxGeometry x="1349.5" y="1134" width="120" height="40" as="geometry" />
        </mxCell>
        <mxCell id="1469" value="connect&lt;br&gt;将指定对象连接到ring或者stripe" style="rounded=1;fillColor=#f5af58;strokeColor=none;strokeWidth=3;shadow=0;html=1;fontColor=#FFFFFF;" parent="1" vertex="1">
          <mxGeometry x="1364.5" y="1206.5" width="196.5" height="40" as="geometry" />
        </mxCell>
        <mxCell id="1470" value="nets" style="rounded=1;fillColor=#f5af58;strokeColor=none;strokeWidth=3;shadow=0;html=1;fontColor=#FFFFFF;" parent="1" vertex="1">
          <mxGeometry x="1401" y="1286.5" width="120" height="40" as="geometry" />
        </mxCell>
        <mxCell id="1471" value="corePinWidth" style="rounded=1;fillColor=#f5af58;strokeColor=none;strokeWidth=3;shadow=0;html=1;fontColor=#FFFFFF;" parent="1" vertex="1">
          <mxGeometry x="1289.5" y="1370" width="120" height="40" as="geometry" />
        </mxCell>
        <mxCell id="1472" value="crossoverViaLayerRange&lt;br&gt;指定可以打孔的最高层和最低层" style="rounded=1;fillColor=#f5af58;strokeColor=none;strokeWidth=3;shadow=0;html=1;fontColor=#FFFFFF;" parent="1" vertex="1">
          <mxGeometry x="1051" y="1360" width="176.5" height="40" as="geometry" />
        </mxCell>
        <mxCell id="1473" value="targetViaLayerRange" style="rounded=1;fillColor=#f5af58;strokeColor=none;strokeWidth=3;shadow=0;html=1;fontColor=#FFFFFF;" parent="1" vertex="1">
          <mxGeometry x="961" y="1246.5" width="120" height="40" as="geometry" />
        </mxCell>
        <mxCell id="1478" value="allowJogging&amp;nbsp; 0" style="rounded=1;fillColor=#f5af58;strokeColor=none;strokeWidth=3;shadow=0;html=1;fontColor=#FFFFFF;" parent="1" vertex="1">
          <mxGeometry x="1244" y="1040" width="120" height="40" as="geometry" />
        </mxCell>
        <mxCell id="1479" value="" style="edgeStyle=none;endArrow=none;strokeWidth=3;strokeColor=#F5AF58;html=1;" parent="1" source="1355" target="1478" edge="1">
          <mxGeometry x="243.5" y="39" width="100" height="100" as="geometry">
            <mxPoint x="234.5" y="-1" as="sourcePoint" />
            <mxPoint x="334.5" y="-101" as="targetPoint" />
          </mxGeometry>
        </mxCell>
        <mxCell id="1480" value="" style="edgeStyle=none;endArrow=none;strokeWidth=3;strokeColor=#F5AF58;html=1;" parent="1" source="1355" target="1468" edge="1">
          <mxGeometry x="243.5" y="39" width="100" height="100" as="geometry">
            <mxPoint x="234.5" y="-1" as="sourcePoint" />
            <mxPoint x="334.5" y="-101" as="targetPoint" />
          </mxGeometry>
        </mxCell>
        <mxCell id="1481" value="" style="edgeStyle=none;endArrow=none;strokeWidth=3;strokeColor=#F5AF58;html=1;" parent="1" source="1355" target="1469" edge="1">
          <mxGeometry x="243.5" y="39" width="100" height="100" as="geometry">
            <mxPoint x="234.5" y="-1" as="sourcePoint" />
            <mxPoint x="334.5" y="-101" as="targetPoint" />
          </mxGeometry>
        </mxCell>
        <mxCell id="1482" value="" style="edgeStyle=none;endArrow=none;strokeWidth=3;strokeColor=#F5AF58;html=1;" parent="1" source="1355" target="1470" edge="1">
          <mxGeometry x="243.5" y="39" width="100" height="100" as="geometry">
            <mxPoint x="234.5" y="-1" as="sourcePoint" />
            <mxPoint x="334.5" y="-101" as="targetPoint" />
          </mxGeometry>
        </mxCell>
        <mxCell id="1483" value="" style="edgeStyle=none;endArrow=none;strokeWidth=3;strokeColor=#F5AF58;html=1;" parent="1" source="1355" target="1471" edge="1">
          <mxGeometry x="243.5" y="39" width="100" height="100" as="geometry">
            <mxPoint x="234.5" y="-1" as="sourcePoint" />
            <mxPoint x="334.5" y="-101" as="targetPoint" />
          </mxGeometry>
        </mxCell>
        <mxCell id="1484" value="" style="edgeStyle=none;endArrow=none;strokeWidth=3;strokeColor=#F5AF58;html=1;" parent="1" source="1355" target="1472" edge="1">
          <mxGeometry x="243.5" y="39" width="100" height="100" as="geometry">
            <mxPoint x="234.5" y="-1" as="sourcePoint" />
            <mxPoint x="334.5" y="-101" as="targetPoint" />
          </mxGeometry>
        </mxCell>
        <mxCell id="1485" value="" style="edgeStyle=none;endArrow=none;strokeWidth=3;strokeColor=#F5AF58;html=1;" parent="1" source="1355" target="1473" edge="1">
          <mxGeometry x="243.5" y="39" width="100" height="100" as="geometry">
            <mxPoint x="234.5" y="-1" as="sourcePoint" />
            <mxPoint x="334.5" y="-101" as="targetPoint" />
          </mxGeometry>
        </mxCell>
        <mxCell id="1490" value="-groud" style="rounded=1;fillColor=#f08e81;strokeColor=none;strokeWidth=3;shadow=0;html=1;fontColor=#FFFFFF;" parent="1" vertex="1">
          <mxGeometry x="190" y="961.5" width="120" height="40" as="geometry" />
        </mxCell>
        <mxCell id="1491" value="-physical" style="rounded=1;fillColor=#f08e81;strokeColor=none;strokeWidth=3;shadow=0;html=1;fontColor=#FFFFFF;" parent="1" vertex="1">
          <mxGeometry x="256.5" y="1055" width="120" height="40" as="geometry" />
        </mxCell>
        <mxCell id="1503" value="" style="edgeStyle=none;endArrow=none;strokeWidth=3;strokeColor=#F08E81;html=1;" parent="1" source="1356" target="1490" edge="1">
          <mxGeometry x="188.5" y="51.5" width="100" height="100" as="geometry">
            <mxPoint x="-61.5" y="46.5" as="sourcePoint" />
            <mxPoint x="38.5" y="-53.5" as="targetPoint" />
          </mxGeometry>
        </mxCell>
        <mxCell id="1504" value="" style="edgeStyle=none;endArrow=none;strokeWidth=3;strokeColor=#F08E81;html=1;" parent="1" source="1356" target="1491" edge="1">
          <mxGeometry x="188.5" y="51.5" width="100" height="100" as="geometry">
            <mxPoint x="-61.5" y="46.5" as="sourcePoint" />
            <mxPoint x="38.5" y="-53.5" as="targetPoint" />
          </mxGeometry>
        </mxCell>
        <mxCell id="1515" value="Power" style="ellipse;whiteSpace=wrap;html=1;shadow=0;fontFamily=Helvetica;fontSize=30;fontColor=#2F5B7C;align=center;strokeColor=#2F5B7C;strokeWidth=6;fillColor=#FFFFFF;fontStyle=1;gradientColor=none;" parent="1" vertex="1">
          <mxGeometry x="961" y="676.5" width="270" height="270" as="geometry" />
        </mxCell>
        <mxCell id="1516" value="addStripe&lt;br&gt;添加电源条线" style="ellipse;whiteSpace=wrap;html=1;shadow=0;fontFamily=Helvetica;fontSize=20;fontColor=#FFFFFF;align=center;strokeWidth=3;fillColor=#736ca8;strokeColor=none;" parent="1" vertex="1">
          <mxGeometry x="300" y="566.5" width="162" height="120" as="geometry" />
        </mxCell>
        <mxCell id="1518" value="area" style="rounded=1;fillColor=#a29dc5;strokeColor=none;strokeWidth=3;shadow=0;html=1;fontColor=#FFFFFF;" parent="1" vertex="1">
          <mxGeometry x="190" y="470" width="120" height="40" as="geometry" />
        </mxCell>
        <mxCell id="1519" value="direction(verical|horizontal)" style="rounded=1;fillColor=#a29dc5;strokeColor=none;strokeWidth=3;shadow=0;html=1;fontColor=#FFFFFF;" parent="1" vertex="1">
          <mxGeometry x="323" y="394" width="160.5" height="40" as="geometry" />
        </mxCell>
        <mxCell id="1520" value="layer&amp;nbsp; M5" style="rounded=1;fillColor=#a29dc5;strokeColor=none;strokeWidth=3;shadow=0;html=1;fontColor=#FFFFFF;" parent="1" vertex="1">
          <mxGeometry x="430" y="460" width="120" height="40" as="geometry" />
        </mxCell>
        <mxCell id="1521" value="nets&lt;br&gt;指定stripe放到哪条线上" style="rounded=1;fillColor=#a29dc5;strokeColor=none;strokeWidth=3;shadow=0;html=1;fontColor=#FFFFFF;" parent="1" vertex="1">
          <mxGeometry x="590" y="620" width="140" height="40" as="geometry" />
        </mxCell>
        <mxCell id="1523" value="width" style="rounded=1;fillColor=#a29dc5;strokeColor=none;strokeWidth=3;shadow=0;html=1;fontColor=#FFFFFF;" parent="1" vertex="1">
          <mxGeometry x="520" y="730" width="120" height="40" as="geometry" />
        </mxCell>
        <mxCell id="1524" value="set_to_set_distance" style="rounded=1;fillColor=#a29dc5;strokeColor=none;strokeWidth=3;shadow=0;html=1;fontColor=#FFFFFF;" parent="1" vertex="1">
          <mxGeometry x="280" y="731.5" width="120" height="40" as="geometry" />
        </mxCell>
        <mxCell id="1525" value="start_offset" style="rounded=1;fillColor=#a29dc5;strokeColor=none;strokeWidth=3;shadow=0;html=1;fontColor=#FFFFFF;" parent="1" vertex="1">
          <mxGeometry x="100" y="731.5" width="120" height="40" as="geometry" />
        </mxCell>
        <mxCell id="1526" value="create_pins 0" style="rounded=1;fillColor=#a29dc5;strokeColor=none;strokeWidth=3;shadow=0;html=1;fontColor=#FFFFFF;" parent="1" vertex="1">
          <mxGeometry x="110" y="540" width="120" height="40" as="geometry" />
        </mxCell>
        <mxCell id="1530" value="" style="edgeStyle=none;endArrow=none;strokeWidth=3;strokeColor=#A29DC5;html=1;" parent="1" source="1516" target="1518" edge="1">
          <mxGeometry x="-1498" y="-303.5" width="100" height="100" as="geometry">
            <mxPoint x="-1508" y="-323.5" as="sourcePoint" />
            <mxPoint x="-1408" y="-423.5" as="targetPoint" />
          </mxGeometry>
        </mxCell>
        <mxCell id="1531" value="" style="edgeStyle=none;endArrow=none;strokeWidth=3;strokeColor=#A29DC5;html=1;" parent="1" source="1516" target="1519" edge="1">
          <mxGeometry x="-1498" y="-303.5" width="100" height="100" as="geometry">
            <mxPoint x="-1508" y="-323.5" as="sourcePoint" />
            <mxPoint x="-1408" y="-423.5" as="targetPoint" />
          </mxGeometry>
        </mxCell>
        <mxCell id="1532" value="" style="edgeStyle=none;endArrow=none;strokeWidth=3;strokeColor=#A29DC5;html=1;" parent="1" source="1516" target="1520" edge="1">
          <mxGeometry x="-1498" y="-303.5" width="100" height="100" as="geometry">
            <mxPoint x="-1508" y="-323.5" as="sourcePoint" />
            <mxPoint x="-1408" y="-423.5" as="targetPoint" />
          </mxGeometry>
        </mxCell>
        <mxCell id="1533" value="" style="edgeStyle=none;endArrow=none;strokeWidth=3;strokeColor=#A29DC5;html=1;" parent="1" source="1516" target="1521" edge="1">
          <mxGeometry x="-1498" y="-303.5" width="100" height="100" as="geometry">
            <mxPoint x="-1508" y="-323.5" as="sourcePoint" />
            <mxPoint x="-1408" y="-423.5" as="targetPoint" />
          </mxGeometry>
        </mxCell>
        <mxCell id="1535" value="" style="edgeStyle=none;endArrow=none;strokeWidth=3;strokeColor=#A29DC5;html=1;" parent="1" source="1516" target="1523" edge="1">
          <mxGeometry x="-1498" y="-303.5" width="100" height="100" as="geometry">
            <mxPoint x="-1508" y="-323.5" as="sourcePoint" />
            <mxPoint x="-1408" y="-423.5" as="targetPoint" />
          </mxGeometry>
        </mxCell>
        <mxCell id="1536" value="" style="edgeStyle=none;endArrow=none;strokeWidth=3;strokeColor=#A29DC5;html=1;" parent="1" source="1516" target="1524" edge="1">
          <mxGeometry x="-1498" y="-303.5" width="100" height="100" as="geometry">
            <mxPoint x="-1508" y="-323.5" as="sourcePoint" />
            <mxPoint x="-1408" y="-423.5" as="targetPoint" />
          </mxGeometry>
        </mxCell>
        <mxCell id="1537" value="" style="edgeStyle=none;endArrow=none;strokeWidth=3;strokeColor=#A29DC5;html=1;" parent="1" source="1516" target="1525" edge="1">
          <mxGeometry x="-1498" y="-303.5" width="100" height="100" as="geometry">
            <mxPoint x="-1508" y="-323.5" as="sourcePoint" />
            <mxPoint x="-1408" y="-423.5" as="targetPoint" />
          </mxGeometry>
        </mxCell>
        <mxCell id="1538" value="" style="edgeStyle=none;endArrow=none;strokeWidth=3;strokeColor=#A29DC5;html=1;" parent="1" source="1516" target="1526" edge="1">
          <mxGeometry x="-1498" y="-303.5" width="100" height="100" as="geometry">
            <mxPoint x="-1508" y="-323.5" as="sourcePoint" />
            <mxPoint x="-1408" y="-423.5" as="targetPoint" />
          </mxGeometry>
        </mxCell>
        <mxCell id="104TM-tIM6dC0J846HSY-1542" value="" style="edgeStyle=none;endArrow=none;strokeWidth=3;strokeColor=#64BBE2;html=1;" parent="1" source="1350" target="1439" edge="1">
          <mxGeometry x="-221.5" y="56.5" width="100" height="100" as="geometry">
            <mxPoint x="561" y="392" as="sourcePoint" />
            <mxPoint x="506" y="477" as="targetPoint" />
          </mxGeometry>
        </mxCell>
        <mxCell id="ECbVuGx_JuomwF0MRVY4-1545" value="&lt;font style=&quot;font-size: 16px;&quot;&gt;use_fgc&amp;nbsp; 1&lt;/font&gt;" style="rounded=1;fillColor=#f5af58;strokeColor=none;strokeWidth=3;shadow=0;html=1;fontColor=#FFFFFF;" parent="1" vertex="1">
          <mxGeometry x="1283.5" y="425" width="120" height="40" as="geometry" />
        </mxCell>
        <mxCell id="ECbVuGx_JuomwF0MRVY4-1546" value="" style="edgeStyle=none;endArrow=none;strokeWidth=3;strokeColor=#F5AF58;html=1;exitX=1;exitY=0.5;exitDx=0;exitDy=0;" parent="1" source="1351" target="ECbVuGx_JuomwF0MRVY4-1545" edge="1">
          <mxGeometry x="3.5" y="21.5" width="100" height="100" as="geometry">
            <mxPoint x="1391.5" y="535" as="sourcePoint" />
            <mxPoint x="372" y="309.5" as="targetPoint" />
          </mxGeometry>
        </mxCell>
        <mxCell id="ECbVuGx_JuomwF0MRVY4-1548" value="skip_via_on_wire_shape&lt;br&gt;对于指定的导线形状跳过打孔" style="rounded=1;fillColor=#64BBE2;strokeColor=none;strokeWidth=3;shadow=0;html=1;fontColor=#FFFFFF;" parent="1" vertex="1">
          <mxGeometry x="746.5" y="271.5" width="180" height="40" as="geometry" />
        </mxCell>
        <mxCell id="ECbVuGx_JuomwF0MRVY4-1549" value="" style="edgeStyle=none;endArrow=none;strokeWidth=3;strokeColor=#64BBE2;html=1;exitX=1;exitY=0.5;exitDx=0;exitDy=0;" parent="1" source="1350" target="ECbVuGx_JuomwF0MRVY4-1548" edge="1">
          <mxGeometry x="-221.5" y="56.5" width="100" height="100" as="geometry">
            <mxPoint x="963.5" y="372.5" as="sourcePoint" />
            <mxPoint x="295" y="138" as="targetPoint" />
          </mxGeometry>
        </mxCell>
        <mxCell id="ECbVuGx_JuomwF0MRVY4-1550" value="" style="edgeStyle=none;endArrow=none;strokeWidth=6;strokeColor=#3A5431;html=1;exitX=0.251;exitY=0.934;exitDx=0;exitDy=0;exitPerimeter=0;entryX=0.5;entryY=0;entryDx=0;entryDy=0;fillColor=#6d8764;" parent="1" source="1515" target="ECbVuGx_JuomwF0MRVY4-1551" edge="1">
          <mxGeometry x="181" y="226.5" width="100" height="100" as="geometry">
            <mxPoint x="997" y="901" as="sourcePoint" />
            <mxPoint x="910" y="1150" as="targetPoint" />
          </mxGeometry>
        </mxCell>
        <mxCell id="ECbVuGx_JuomwF0MRVY4-1551" value="addRing&lt;br&gt;添加电源环线" style="ellipse;whiteSpace=wrap;html=1;shadow=0;fontFamily=Helvetica;fontSize=20;fontColor=#ffffff;align=center;strokeWidth=3;fillColor=#6d8764;strokeColor=#3A5431;" parent="1" vertex="1">
          <mxGeometry x="920" y="1008" width="161.5" height="120" as="geometry" />
        </mxCell>
        <mxCell id="ECbVuGx_JuomwF0MRVY4-1556" value="" style="edgeStyle=none;endArrow=none;strokeWidth=6;strokeColor=#10739e;html=1;entryX=1;entryY=0;entryDx=0;entryDy=0;fillColor=#b1ddf0;" parent="1" target="ECbVuGx_JuomwF0MRVY4-1557" edge="1">
          <mxGeometry x="181" y="226.5" width="100" height="100" as="geometry">
            <mxPoint x="989" y="888" as="sourcePoint" />
            <mxPoint x="800" y="1090" as="targetPoint" />
          </mxGeometry>
        </mxCell>
        <mxCell id="ECbVuGx_JuomwF0MRVY4-1557" value="globalNetConnect" style="ellipse;whiteSpace=wrap;html=1;shadow=0;fontFamily=Helvetica;fontSize=20;align=center;strokeWidth=3;fillColor=#b1ddf0;strokeColor=#10739e;" parent="1" vertex="1">
          <mxGeometry x="696.5" y="946.5" width="183.5" height="120" as="geometry" />
        </mxCell>
        <mxCell id="ECbVuGx_JuomwF0MRVY4-1558" value="-pin" style="rounded=1;fillColor=#b1ddf0;strokeColor=#10739e;strokeWidth=3;shadow=0;html=1;" parent="1" vertex="1">
          <mxGeometry x="480" y="1034.5" width="120" height="40" as="geometry" />
        </mxCell>
        <mxCell id="ECbVuGx_JuomwF0MRVY4-1559" value="-type" style="rounded=1;fillColor=#b1ddf0;strokeColor=#10739e;strokeWidth=3;shadow=0;html=1;" parent="1" vertex="1">
          <mxGeometry x="546.5" y="1128" width="120" height="40" as="geometry" />
        </mxCell>
        <mxCell id="ECbVuGx_JuomwF0MRVY4-1560" value="" style="edgeStyle=none;endArrow=none;strokeWidth=3;strokeColor=#10739e;html=1;fillColor=#b1ddf0;" parent="1" source="ECbVuGx_JuomwF0MRVY4-1557" target="ECbVuGx_JuomwF0MRVY4-1558" edge="1">
          <mxGeometry x="188.5" y="51.5" width="100" height="100" as="geometry">
            <mxPoint x="228.5" y="119.5" as="sourcePoint" />
            <mxPoint x="328.5" y="19.5" as="targetPoint" />
          </mxGeometry>
        </mxCell>
        <mxCell id="ECbVuGx_JuomwF0MRVY4-1561" value="" style="edgeStyle=none;endArrow=none;strokeWidth=3;strokeColor=#10739e;html=1;fillColor=#b1ddf0;" parent="1" source="ECbVuGx_JuomwF0MRVY4-1557" target="ECbVuGx_JuomwF0MRVY4-1559" edge="1">
          <mxGeometry x="188.5" y="51.5" width="100" height="100" as="geometry">
            <mxPoint x="228.5" y="119.5" as="sourcePoint" />
            <mxPoint x="328.5" y="19.5" as="targetPoint" />
          </mxGeometry>
        </mxCell>
        <mxCell id="ECbVuGx_JuomwF0MRVY4-1562" value="-all" style="rounded=1;fillColor=#b1ddf0;strokeColor=#10739e;strokeWidth=3;shadow=0;html=1;" parent="1" vertex="1">
          <mxGeometry x="698.5" y="1148" width="120" height="40" as="geometry" />
        </mxCell>
        <mxCell id="ECbVuGx_JuomwF0MRVY4-1563" value="" style="edgeStyle=none;endArrow=none;strokeWidth=3;strokeColor=#10739e;html=1;fillColor=#b1ddf0;entryX=0.5;entryY=0;entryDx=0;entryDy=0;exitX=0.5;exitY=1;exitDx=0;exitDy=0;" parent="1" source="ECbVuGx_JuomwF0MRVY4-1557" target="ECbVuGx_JuomwF0MRVY4-1562" edge="1">
          <mxGeometry x="188.5" y="51.5" width="100" height="100" as="geometry">
            <mxPoint x="713" y="1073" as="sourcePoint" />
            <mxPoint x="639" y="1138" as="targetPoint" />
          </mxGeometry>
        </mxCell>
        <mxCell id="ECbVuGx_JuomwF0MRVY4-1564" value="stapling_nets_style&lt;br&gt;对stripe格式设置" style="rounded=1;fillColor=#64BBE2;strokeColor=none;strokeWidth=3;shadow=0;html=1;fontColor=#FFFFFF;fontSize=20;" parent="1" vertex="1">
          <mxGeometry x="771.5" y="107" width="218.5" height="40" as="geometry" />
        </mxCell>
        <mxCell id="ECbVuGx_JuomwF0MRVY4-1565" value="" style="edgeStyle=none;endArrow=none;strokeWidth=3;strokeColor=#64BBE2;html=1;exitX=1;exitY=0;exitDx=0;exitDy=0;" parent="1" source="1350" target="ECbVuGx_JuomwF0MRVY4-1564" edge="1">
          <mxGeometry x="-221.5" y="56.5" width="100" height="100" as="geometry">
            <mxPoint x="801.5" y="240" as="sourcePoint" />
            <mxPoint x="50" y="23.5" as="targetPoint" />
          </mxGeometry>
        </mxCell>
        <mxCell id="2WprUobXhC-wDhnUIBoG-1538" value="stop(终止坐标)" style="rounded=1;fillColor=#a29dc5;strokeColor=none;strokeWidth=3;shadow=0;html=1;fontColor=#FFFFFF;" parent="1" vertex="1">
          <mxGeometry x="580" y="530" width="120" height="40" as="geometry" />
        </mxCell>
        <mxCell id="2WprUobXhC-wDhnUIBoG-1539" value="" style="edgeStyle=none;endArrow=none;strokeWidth=3;strokeColor=#A29DC5;html=1;exitX=0.96;exitY=0.334;exitDx=0;exitDy=0;exitPerimeter=0;" parent="1" source="1516" target="2WprUobXhC-wDhnUIBoG-1538" edge="1">
          <mxGeometry x="-1498" y="-303.5" width="100" height="100" as="geometry">
            <mxPoint x="344" y="588" as="sourcePoint" />
            <mxPoint x="-1398" y="-413.5" as="targetPoint" />
          </mxGeometry>
        </mxCell>
        <mxCell id="2WprUobXhC-wDhnUIBoG-1540" value="start(开始坐标)" style="rounded=1;fillColor=#a29dc5;strokeColor=none;strokeWidth=3;shadow=0;html=1;fontColor=#FFFFFF;" parent="1" vertex="1">
          <mxGeometry x="590" y="440" width="120" height="40" as="geometry" />
        </mxCell>
        <mxCell id="2WprUobXhC-wDhnUIBoG-1541" value="" style="edgeStyle=none;endArrow=none;strokeWidth=3;strokeColor=#A29DC5;html=1;" parent="1" source="1516" target="2WprUobXhC-wDhnUIBoG-1540" edge="1">
          <mxGeometry x="-1498" y="-303.5" width="100" height="100" as="geometry">
            <mxPoint x="794" y="658" as="sourcePoint" />
            <mxPoint x="-948" y="-343.5" as="targetPoint" />
          </mxGeometry>
        </mxCell>
        <mxCell id="2WprUobXhC-wDhnUIBoG-1542" value="snap_wire_center_to_grid&lt;br&gt;将导线的中心放到routing grid上" style="rounded=1;fillColor=#a29dc5;strokeColor=none;strokeWidth=3;shadow=0;html=1;fontColor=#FFFFFF;" parent="1" vertex="1">
          <mxGeometry y="632" width="180" height="40" as="geometry" />
        </mxCell>
        <mxCell id="2WprUobXhC-wDhnUIBoG-1543" value="" style="edgeStyle=none;endArrow=none;strokeWidth=3;strokeColor=#A29DC5;html=1;exitX=0;exitY=0.5;exitDx=0;exitDy=0;" parent="1" source="1516" target="2WprUobXhC-wDhnUIBoG-1542" edge="1">
          <mxGeometry x="-1498" y="-303.5" width="100" height="100" as="geometry">
            <mxPoint x="204" y="740" as="sourcePoint" />
            <mxPoint x="-1538" y="-261.5" as="targetPoint" />
          </mxGeometry>
        </mxCell>
        <mxCell id="2WprUobXhC-wDhnUIBoG-1545" value="" style="edgeStyle=none;endArrow=none;strokeWidth=3;strokeColor=#A29DC5;html=1;exitX=0.735;exitY=0.977;exitDx=0;exitDy=0;exitPerimeter=0;entryX=0.5;entryY=0;entryDx=0;entryDy=0;" parent="1" source="1516" target="2WprUobXhC-wDhnUIBoG-1546" edge="1">
          <mxGeometry x="-1498" y="-303.5" width="100" height="100" as="geometry">
            <mxPoint x="401" y="686.5" as="sourcePoint" />
            <mxPoint x="460" y="780" as="targetPoint" />
          </mxGeometry>
        </mxCell>
        <mxCell id="2WprUobXhC-wDhnUIBoG-1546" value="area_blockage&lt;br&gt;划定禁止添加stripe的区域" style="rounded=1;fillColor=#a29dc5;strokeColor=none;strokeWidth=3;shadow=0;html=1;fontColor=#FFFFFF;" parent="1" vertex="1">
          <mxGeometry x="400" y="790" width="140" height="40" as="geometry" />
        </mxCell>
      </root>
    </mxGraphModel>
  </diagram>
</mxfile>
